# xmcd
#
# Track frame offsets: 
#        150
#        17118
#        34627
#        54812
#        75672
#        96122
#        111858
#        128050
#        142429
#        157578
#        174745
#
# Disc length: 2550 seconds
#
# Revision: 1
# Processed by: cddbd v1.4PL0 Copyright (c) Steve Scherf et al.
# Submitted via: ExactAudioCopy v0.90b4
#
DISCID=8509f40b
DTITLE=Sylvia - Where In The World
DYEAR=1900
DGENRE=Country
TTITLE0=Where In The World
TTITLE1=Dance With Father Time
TTITLE2=Crazy Nightingale
TTITLE3=Bird On A Wire
TTITLE4=Marcie
TTITLE5=Arrow
TTITLE6=Bus Stop
TTITLE7=In My Life
TTITLE8=Watching Life With The Sound Turned Down
TTITLE9=Song Of Bernadette
TTITLE10=Nobody (Unplugged) (Bonus Track)
EXTD=
EXTT0=
EXTT1=
EXTT2=
EXTT3=
EXTT4=
EXTT5=
EXTT6=
EXTT7=
EXTT8=
EXTT9=
EXTT10=
PLAYORDER=
